:SAMPLES-PER-SECOND 30
:FRAME-RANGE 1-668
:FULLY-SPECIFIED
:DEGREES
126
root  44.5884 39.7273 6.87433 176.838 -40.0551 -177.2
RightUpLeg  -4.53242 -5.03761 -0.960333
RightLeg  11.4774 -8.7443 -0.715421
RightFoot  -6.27483 -0.260042 4.90873
RightToes  -1.33073e-015 0 -3.6325e-017
Spine  6.43512 0.692137 4.99496
Spine1  5.15098 3.5069 -9.92239
HEad  -11.6945 55.8533 -8.35896
LeftShoulder1  1.79421 -0.844832 -35.1849
LeftArm  -56.4133 -16.0299 9.82713
LeftForeArm  57.4034 -76.8111 -46.0924
LeftHand  -0.142763 4.33753 14.5574
RightShoulder  10.3358 15.3533 47.966
RightArm  -13.971 7.00744 4.68383
RightForeArm  17.3487 14.9474 8.02624
RightHand  -0.662481 2.62425 -9.79522
LeftUpLeg  -5.2034 7.69 12.1919
LeftLeg  10.6178 -4.20569 -0.127628
LeftFoot  -3.75894 0.712318 -10.3893
LeftToes  -2.73175e-012 1.00346e-010 -4.28452e-011
127
root  44.6796 39.7008 6.8222 176.4 -39.221 -176.714
RightUpLeg  -4.54129 -4.5329 -0.270756
RightLeg  11.5263 -8.56127 -0.725166
RightFoot  -6.24976 -0.252613 4.72167
RightToes  -1.33073e-015 0 -3.6325e-017
Spine  6.51367 0.427695 4.81137
Spine1  5.54829 3.46764 -10.7129
HEad  -12.9218 57.0298 -9.09838
LeftShoulder1  1.87764 -0.913508 -36.4021
LeftArm  -52.6497 -15.0343 6.03744
LeftForeArm  50.6714 -73.7274 -34.3455
LeftHand  -0.264956 3.59836 16.6877
RightShoulder  10.0581 14.8629 47.9281
RightArm  -12.0761 6.59489 4.88719
RightForeArm  15.9112 15.5719 7.85103
RightHand  -0.661233 2.56778 -9.84257
LeftUpLeg  -5.08962 7.79585 12.9031
LeftLeg  11.0997 -3.6834 -0.0514993
LeftFoot  -3.99586 0.700134 -10.5132
LeftToes  -2.73175e-012 1.00346e-010 -4.28452e-011
128
root  44.7797 39.6791 6.78234 176.1 -38.4939 -176.295
RightUpLeg  -4.63403 -4.13791 0.326368
RightLeg  11.5315 -8.31888 -0.653848
RightFoot  -6.16077 -0.246636 4.52201
RightToes  -1.33073e-015 0 -3.6325e-017
Spine  6.61569 0.187873 4.45629
Spine1  5.91653 3.31561 -10.9908
HEad  -14.2922 58.0176 -10.4461
LeftShoulder1  1.94243 -1.01913 -36.8299
LeftArm  -49.4329 -14.5576 2.77354
LeftForeArm  43.6481 -68.0619 -23.6317
LeftHand  -0.451992 2.56457 18.3845
RightShoulder  9.84509 14.5066 47.8436
RightArm  -10.5346 6.02753 4.94493
RightForeArm  15.0197 16.1937 7.58998
RightHand  -0.649998 2.47103 -9.79166
LeftUpLeg  -5.06205 7.90343 13.5245
LeftLeg  11.4614 -3.22093 0.0276415
LeftFoot  -4.12511 0.702178 -10.7211
LeftToes  -2.73175e-012 1.00346e-010 -4.28452e-011
129
root  44.8754 39.666 6.75176 176.031 -37.8142 -175.983
RightUpLeg  -4.84272 -3.86469 0.78412
RightLeg  11.4308 -7.98795 -0.469692
RightFoot  -6.04039 -0.240938 4.31406
RightToes  -1.33073e-015 0 -3.6325e-017
Spine  6.61114 -0.0597172 4.05583
Spine1  6.24612 3.0663 -10.9753
HEad  -15.3508 59.0179 -11.8345
LeftShoulder1  1.97958 -1.08677 -37.0016
LeftArm  -47.0173 -14.8917 1.13126
LeftForeArm  38.6994 -60.3997 -16.2309
LeftHand  -0.626108 1.80884 20.1891
RightShoulder  9.73983 14.3403 47.7735
RightArm  -9.67109 5.40961 4.88507
RightForeArm  14.8748 16.4941 7.44145
RightHand  -0.662705 2.5237 -9.91572
LeftUpLeg  -5.14092 7.84031 13.9794
LeftLeg  11.6429 -2.61546 0.1903
LeftFoot  -4.11397 0.708881 -10.811
LeftToes  -2.73175e-012 1.00346e-010 -4.28452e-011
130
root  44.9597 39.6565 6.73361 176.074 -37.15 -175.77
RightUpLeg  -5.09302 -3.68463 1.11843
RightLeg  11.3149 -7.65693 -0.261648
RightFoot  -5.87472 -0.235683 4.09688
RightToes  -1.33073e-015 0 -3.6325e-017
Spine  6.51675 -0.195401 3.49465
Spine1  6.59848 2.79395 -10.4363
HEad  -15.7825 59.8594 -12.8646
LeftShoulder1  1.9923 -1.14189 -36.7724
LeftArm  -44.6032 -15.8172 0.362917
LeftForeArm  34.4449 -52.1061 -11.6714
LeftHand  -0.688151 1.77181 21.9532
RightShoulder  9.52297 14.0593 47.4546
RightArm  -9.35438 5.03604 4.91187
RightForeArm  14.9478 16.366 7.53106
RightHand  -0.670405 2.50195 -10.0541
LeftUpLeg  -5.22516 7.90064 14.3317
LeftLeg  11.7365 -2.07518 0.320498
LeftFoot  -4.06059 0.721928 -10.9405
LeftToes  -2.73175e-012 1.00346e-010 -4.28452e-011
131
root  45.0312 39.6638 6.72584 176.219 -36.4429 -175.683
RightUpLeg  -5.30478 -3.46928 1.35171
RightLeg  11.0529 -7.18363 -0.0790313
RightFoot  -5.61811 -0.231624 3.86676
RightToes  -1.33073e-015 0 -3.6325e-017
Spine  6.48043 -0.258187 2.99766
Spine1  6.83563 2.56307 -9.82602
HEad  -15.6468 60.5118 -13.3324
LeftShoulder1  1.9904 -1.20877 -36.1435
LeftArm  -41.9798 -16.8975 -0.0949078
LeftForeArm  30.3457 -43.9687 -8.719
LeftHand  -0.694154 1.89533 22.9099
RightShoulder  9.34407 13.8073 47.2392
RightArm  -9.19923 4.70184 4.73841
RightForeArm  15.013 16.0259 7.76522
RightHand  -0.674224 2.60784 -9.98368
LeftUpLeg  -5.17952 8.09397 14.5325
LeftLeg  11.5728 -1.55919 0.486396
LeftFoot  -3.93916 0.742642 -11.0905
LeftToes  -2.73175e-012 1.00346e-010 -4.28452e-011
132
root  45.076 39.6725 6.74114 176.404 -35.7485 -175.684
RightUpLeg  -5.49872 -3.3316 1.46151
RightLeg  10.773 -6.68865 0.0927394
RightFoot  -5.31146 -0.235414 3.78122
RightToes  -1.33073e-015 0 -3.6325e-017
Spine  6.42103 -0.245823 2.54914
Spine1  7.22274 2.35545 -8.94046
HEad  -15.3298 61.1364 -13.6299
LeftShoulder1  1.96364 -1.23774 -35.3415
LeftArm  -39.0813 -17.9905 -0.558322
LeftForeArm  25.8692 -36.632 -6.76926
LeftHand  -0.688669 1.96371 23.1757
RightShoulder  9.17487 13.6034 46.9316
RightArm  -9.28945 4.49022 4.55992
RightForeArm  15.2622 15.4277 8.14098
RightHand  -0.663252 2.53763 -9.90725
LeftUpLeg  -5.1025 8.58401 14.6586
LeftLeg  11.3642 -1.34034 0.519178
LeftFoot  -3.79025 0.756467 -11.0936
LeftToes  -2.73175e-012 1.00346e-010 -4.28452e-011
133
root  45.087 39.6929 6.78431 176.657 -35.171 -175.765
RightUpLeg  -5.65033 -3.2591 1.41379
RightLeg  10.3739 -6.17583 0.259684
RightFoot  -4.94649 -0.23752 3.6471
RightToes  -1.33073e-015 0 -3.6325e-017
Spine  6.27426 -0.322415 2.31231
Spine1  7.71583 2.08514 -8.13468
HEad  -14.7526 61.7607 -13.5646
LeftShoulder1  1.92613 -1.26039 -34.3756
LeftArm  -36.1762 -18.7034 -1.14995
LeftForeArm  21.1092 -30.3027 -5.43309
LeftHand  -0.684257 1.94246 22.8895
RightShoulder  9.08307 13.5144 46.7003
RightArm  -9.56618 4.35464 4.43697
RightForeArm  15.9935 14.7026 8.55401
RightHand  -0.660392 2.57134 -9.82623
LeftUpLeg  -5.03322 8.88152 14.5938
LeftLeg  11.042 -1.03995 0.591495
LeftFoot  -3.57715 0.77082 -11.0184
LeftToes  -2.73175e-012 1.00346e-010 -4.28452e-011
134
root  45.0689 39.7166 6.85555 176.999 -34.6953 -175.964
RightUpLeg  -5.82752 -3.27751 1.21154
RightLeg  9.98171 -5.67419 0.370082
RightFoot  -4.62114 -0.247881 3.68405
RightToes  -1.33073e-015 0 -3.6325e-017
Spine  6.16282 -0.406822 2.18367
Spine1  8.20603 1.78404 -7.25283
HEad  -13.9396 62.2188 -13.3901
LeftShoulder1  1.88939 -1.28485 -33.4133
LeftArm  -32.4862 -19.224 -1.8146
LeftForeArm  16.088 -24.7487 -4.45001
LeftHand  -0.605358 2.36456 23.0471
RightShoulder  8.97599 13.4056 46.4409
RightArm  -9.71032 4.28449 4.40141
RightForeArm  16.7323 14.0049 8.94784
RightHand  -0.652445 2.56806 -9.71471
LeftUpLeg  -5.03031 9.17632 14.3458
LeftLeg  10.722 -0.742859 0.621845
LeftFoot  -3.34855 0.776285 -10.801
LeftToes  -2.73175e-012 1.00346e-010 -4.28452e-011
135
root  45.0239 39.7439 6.95405 177.495 -34.2613 -176.287
RightUpLeg  -6.14032 -3.41821 0.838499
RightLeg  9.63807 -5.06313 0.473892
RightFoot  -4.25472 -0.264642 3.80368
RightToes  -1.33073e-015 0 -3.6325e-017
Spine  6.04546 -0.475207 2.23569
Spine1  8.63469 1.51967 -6.47777
HEad  -13.2219 62.4853 -13.2989
LeftShoulder1  1.85456 -1.32467 -32.3717
LeftArm  -31.127 -19.3523 -2.69657
LeftForeArm  12.7922 -19.9503 -5.47572
LeftHand  -0.539467 2.57635 22.0686
RightShoulder  8.87822 13.2683 46.3085
RightArm  -10.091 4.14739 4.35523
RightForeArm  17.6584 13.3754 9.24538
RightHand  -0.64689 2.5673 -9.63494
LeftUpLeg  -5.13276 9.56598 13.9241
LeftLeg  10.3963 -0.519663 0.575988
LeftFoot  -3.16017 0.78139 -10.6393
LeftToes  -2.73175e-012 1.00346e-010 -4.28452e-011
136
root  44.9478 39.7795 7.07226 178.078 -33.8049 -176.726
RightUpLeg  -6.46973 -3.56774 0.356028
RightLeg  9.26077 -4.46105 0.482038
RightFoot  -3.83416 -0.289497 4.01199
RightToes  -1.33073e-015 0 -3.6325e-017
Spine  5.93206 -0.501158 2.30567
Spine1  9.08683 1.27633 -5.64934
HEad  -12.5704 62.7493 -13.5015
LeftShoulder1  1.84528 -1.38961 -31.6723
LeftArm  -35.5949 -19.016 -3.37683
LeftForeArm  15.3815 -15.1872 -7.83451
LeftHand  -0.510597 2.65475 21.4759
RightShoulder  8.79083 13.1117 46.2855
RightArm  -10.3561 4.00813 4.27724
RightForeArm  17.8995 13.0049 9.42896
RightHand  -0.643973 2.58187 -9.5761
LeftUpLeg  -5.14586 10.0726 13.3729
LeftLeg  9.85925 -0.383832 0.442525
LeftFoot  -2.88685 0.789679 -10.4292
LeftToes  -2.73175e-012 1.00346e-010 -4.28452e-011
137
root  44.848 39.8194 7.21251 178.828 -33.1751 -177.314
RightUpLeg  -6.93848 -3.70019 -0.258831
RightLeg  8.89899 -3.56431 0.41593
RightFoot  -3.43139 -0.314367 4.20599
RightToes  -1.33073e-015 0 -3.6325e-017
Spine  5.83033 -0.500932 2.37833
Spine1  9.39716 1.05552 -4.86808
HEad  -12.3895 63.2023 -14.2012
LeftShoulder1  1.82841 -1.40144 -31.2355
LeftArm  -38.7661 -18.4914 -4.16927
LeftForeArm  17.0863 -10.7881 -9.37282
LeftHand  -0.433053 2.99493 20.7501
RightShoulder  8.7867 13.0586 46.4164
RightArm  -10.6361 3.89674 4.17468
RightForeArm  18.06 12.6205 9.62168
RightHand  -0.640631 2.58139 -9.5282
LeftUpLeg  -5.14371 10.6056 12.6769
LeftLeg  9.20255 -0.0229412 0.232912
LeftFoot  -2.56573 0.793828 -10.1266
LeftToes  -2.73175e-012 1.00346e-010 -4.28452e-011
